<?xml version="1.0" encoding="UTF-8" standalone="no"?><svg xmlns="http://www.w3.org/2000/svg" xmlns:xlink="http://www.w3.org/1999/xlink" clip-rule="evenodd" stroke-miterlimit="10" viewBox="0 0 256 28"><desc>SVG generated by Keynote</desc><defs></defs><g transform="matrix(1.00, 0.00, -0.00, -1.00, 0.0, 28.0)"><text xml:space="preserve" font-family="BookAntiqua,Book Antiqua" font-size="28.5" fill="#000000" transform="matrix(1.00, 0.00, -0.00, -1.00, 1.1, 6.1)">F</text><text xml:space="preserve" font-family="BookAntiqua,Book Antiqua" font-size="28.5" fill="#000000" transform="matrix(1.00, 0.00, -0.00, -1.00, 14.9, 6.1)">A</text><text xml:space="preserve" font-family="BookAntiqua,Book Antiqua" font-size="28.5" fill="#000000" transform="matrix(1.00, 0.00, -0.00, -1.00, 34.9, 6.1)">T</text><text xml:space="preserve" font-family="BookAntiqua,Book Antiqua" font-size="28.5" fill="#000000" transform="matrix(1.00, 0.00, -0.00, -1.00, 52.3, 6.1)">1</text><text xml:space="preserve" font-family="BookAntiqua,Book Antiqua" font-size="28.5" fill="#000000" transform="matrix(1.00, 0.00, -0.00, -1.00, 66.6, 6.1)">2</text><text xml:space="preserve" font-family="BookAntiqua,Book Antiqua" font-size="28.5" fill="#000000" transform="matrix(1.00, 0.00, -0.00, -1.00, 80.8, 6.1)">,</text><text xml:space="preserve" font-family="BookAntiqua,Book Antiqua" font-size="28.5" fill="#000000" transform="matrix(1.00, 0.00, -0.00, -1.00, 87.9, 6.1)">F</text><text xml:space="preserve" font-family="BookAntiqua,Book Antiqua" font-size="28.5" fill="#000000" transform="matrix(1.00, 0.00, -0.00, -1.00, 101.7, 6.1)">A</text><text xml:space="preserve" font-family="BookAntiqua,Book Antiqua" font-size="28.5" fill="#000000" transform="matrix(1.00, 0.00, -0.00, -1.00, 121.7, 6.1)">T</text><text xml:space="preserve" font-family="BookAntiqua,Book Antiqua" font-size="28.5" fill="#000000" transform="matrix(1.00, 0.00, -0.00, -1.00, 139.1, 6.1)">1</text><text xml:space="preserve" font-family="BookAntiqua,Book Antiqua" font-size="28.5" fill="#000000" transform="matrix(1.00, 0.00, -0.00, -1.00, 153.4, 6.1)">6</text><text xml:space="preserve" font-family="BookAntiqua,Book Antiqua" font-size="28.5" fill="#000000" transform="matrix(1.00, 0.00, -0.00, -1.00, 167.6, 6.1)">,</text><text xml:space="preserve" font-family="BookAntiqua,Book Antiqua" font-size="28.5" fill="#000000" transform="matrix(1.00, 0.00, -0.00, -1.00, 174.7, 6.1)">F</text><text xml:space="preserve" font-family="BookAntiqua,Book Antiqua" font-size="28.5" fill="#000000" transform="matrix(1.00, 0.00, -0.00, -1.00, 188.5, 6.1)">A</text><text xml:space="preserve" font-family="BookAntiqua,Book Antiqua" font-size="28.5" fill="#000000" transform="matrix(1.00, 0.00, -0.00, -1.00, 208.5, 6.1)">T</text><text xml:space="preserve" font-family="BookAntiqua,Book Antiqua" font-size="28.5" fill="#000000" transform="matrix(1.00, 0.00, -0.00, -1.00, 226.0, 6.1)">3</text><text xml:space="preserve" font-family="BookAntiqua,Book Antiqua" font-size="28.5" fill="#000000" transform="matrix(1.00, 0.00, -0.00, -1.00, 240.2, 6.1)">2</text></g></svg>